<?xml version="1.0" encoding="utf-8"?>
<!-- Generator: Adobe Illustrator 21.1.0, SVG Export Plug-In . SVG Version: 6.00 Build 0)  -->
<svg version="1.1" id="Ebene_1" xmlns="http://www.w3.org/2000/svg" xmlns:xlink="http://www.w3.org/1999/xlink" x="0px" y="0px"
	 viewBox="0 0 512 512" style="enable-background:new 0 0 512 512;" xml:space="preserve">
<style type="text/css">
	.st0{fill:#343434;}
	.st1{fill:#BA9878;}
	.st2{fill:#8A8A8A;}
	.st3{fill:#505050;}
	.st4{fill:#9E9E9E;}
	.st5{fill:#2C2C2C;}
	.st6{fill:#1B1B1B;}
	.st7{fill:#535353;}
	.st8{fill:#7A7A7A;}
</style>
<circle class="st0" cx="256.4" cy="256.9" r="244.9"/>
<g id="cpo2jK.tif">
	<g>
		<path class="st1" d="M235.1,99.6c10.7,0.6,21.1,2.7,30.8,7.5c3.5,1.7,6.8,3.8,9.6,6.5c0.4,0.4,0.7,0.8,0.9,1.4
			c5,14.7,9.2,29.7,12.2,44.9c1.8,9.1,3.1,18.3,4.1,27.6c0.1,0.9-0.1,1.1-1,0.9c-12.2-1.4-24.2-0.8-35.9,2.8
			c-5.3,1.6-10.2,4-14.7,7.2c-0.4,0.3-0.6,0.7-0.8,1.1c-6.6,11.6-12.7,23.3-18.1,35.5c-0.3,0.8-0.8,1.1-1.6,1.4
			c-14.5,4.4-26.2,12.5-34.3,25.4c-0.9,1.4-1.7,2.8-2.2,4.5c-1,3.2,0.6,6.5,3.6,7.7c3.1,1.2,6.5,0,8-3.1c3.9-8,11.6-14.9,19.4-18.8
			c-7.1,18.8-12.5,38-14.8,58c-0.3,0.1-0.6-0.1-0.8-0.2c-15.6-7.2-29.2-17.3-41.2-29.5c-13.9-14-25-30-34.6-47.2
			c-8.5-15.4-15.5-31.6-21.5-48.2c-1.1-3.2-2.2-6.4-3.3-9.6c-0.1-0.1-0.1-0.3-0.2-0.4c0-0.9,0-1.7,0-2.6c1.5-8,5.7-14.8,10.5-21.2
			c2.3-3.1,4.9-5.9,7.6-8.6c4.5-4.4,9.3-8.3,14.4-11.9c6.5-4.5,13.4-8.5,20.5-11.9c6.4-3.1,13-5.9,19.8-8.3c7-2.6,14.2-4.8,21.4-6.6
			c6.1-1.5,12.2-2.7,18.3-3.6c3.8-0.5,7.7-0.9,11.6-0.9c0.4,0,0.9,0,1.3,0c0.4,0,0.8,0,1.2,0c0.4,0,0.8,0,1.1,0
			c0.4-0.1,0.8,0.1,1.2-0.1c0.9,0,1.7,0,2.6,0c0.4,0.2,0.9,0.1,1.3,0.1c0.6,0,1.1,0,1.7,0C233.8,99.6,234.5,99.5,235.1,99.6z"/>
		<path class="st2" d="M235.1,99.6c-0.7,0-1.3,0-2,0c-0.1,0-0.1-0.1-0.1-0.1c0,0,0-0.1,0.1-0.1c0.7,0,1.3,0,2,0
			C235.1,99.5,235.1,99.6,235.1,99.6z"/>
		<path class="st3" d="M233.1,99.5c0,0.1,0,0.1,0,0.2c-0.6,0-1.2,0-1.8,0c-0.1,0-0.1-0.1-0.1-0.1c0,0,0-0.1,0.1-0.1
			C232,99.5,232.6,99.5,233.1,99.5z"/>
		<path class="st4" d="M222.7,99.6c0-0.1,0-0.1,0-0.2c0.5,0,0.9,0,1.4,0c0.1,0,0.1,0.1,0.1,0.1c0,0,0,0.1-0.1,0.1
			C223.6,99.6,223.2,99.6,222.7,99.6z"/>
		<path class="st5" d="M227.6,99.5c-0.4,0.3-0.8,0.2-1.2,0.2c-0.1,0-0.1-0.1,0-0.1c0,0,0-0.1,0.1-0.1
			C226.8,99.5,227.2,99.5,227.6,99.5z"/>
		<path class="st6" d="M231.4,99.5c0,0.1,0,0.1,0,0.2c-0.4,0-0.8,0.2-1.2-0.2C230.6,99.5,231,99.5,231.4,99.5z"/>
		<path class="st7" d="M226.4,99.5c0,0.1,0,0.1,0,0.2c-0.4,0-0.8,0-1.2,0c-0.1,0-0.1-0.1,0-0.1c0,0,0-0.1,0.1-0.1
			C225.7,99.5,226.1,99.5,226.4,99.5z"/>
		<path class="st8" d="M225.3,99.5c0,0.1,0,0.1,0,0.2c-0.4,0-0.8,0-1.2,0c0-0.1,0-0.1,0-0.2C224.5,99.5,224.9,99.5,225.3,99.5z"/>
		<path class="st1" d="M211.4,331.2c0-12.1,1.4-24.1,3.9-36c4.3-20.6,11.4-40.2,20.3-59.2c4.4-9.4,9.2-18.5,14.2-27.5
			c0.3-0.4,0.6-0.8,1-1c4.2-2.7,8.8-4.1,13.6-5.2c8.5-1.9,17-2.1,25.6-1.2c15.6,1.6,30.2,6.4,44.4,13c16.2,7.5,31.5,16.6,45.3,28
			c9.6,7.9,18.1,16.9,24.6,27.5c4.1,6.6,7.1,13.6,8.6,21.3c0.5,2.5,0.8,5,0.7,7.5c0,0.6-0.2,1.1-0.4,1.6
			c-9.5,16.6-20,32.6-32.1,47.5c-11.1,13.6-23.3,26.1-37.3,36.9c-13.2,10.1-27.5,18.3-43.3,23.8c-8.6,3-17.4,5-26.5,6
			c-6.4,0.7-12.9,0.7-19.4,0.3c-4.2-0.3-8.3-0.9-12.3-2.1c-0.5-0.1-0.9-0.4-1.3-0.7c-4.6-4.1-8.4-8.9-11.8-14.1
			c-7-10.8-11.7-22.5-14.6-35c-1.5-6.5-2.5-13.1-3-19.8C211.5,338.8,211.4,335,211.4,331.2z"/>
		<path class="st0" d="M212.7,177.7c15.9-1.4,31.5-0.7,46.5,5.7c-1.4,1.7-3,3.2-4.6,4.7c-3.4,3.2-7.1,6-11.2,8.3
			c-5.7,3.2-11.2,2.6-16.6-0.8c-4.8-3.1-8.3-7.3-11.2-12.2C214.6,181.5,213.6,179.7,212.7,177.7z"/>
		<path class="st0" d="M153.5,218.6c8.2-13.9,19.8-24.3,33.3-32.7c0.5,1.9,0.7,3.7,1,5.6c0.5,4.9,0.4,9.8-0.8,14.6
			c-0.9,3.7-2.6,7.1-5.2,10c-2,2.1-4.6,3-7.3,3.6c-4.1,0.8-8.2,0.7-12.3,0.3C159.3,219.6,156.5,219.2,153.5,218.6z"/>
		<path class="st0" d="M333,345.3c-2.5,2.4-5,4.6-7.6,6.7c-7.4,5.9-15.3,11.1-24.1,14.7c-6.5,2.7-13.3,4.4-20.5,3.8
			c-10-0.8-17.8-5.5-23.2-13.9c-3.7-5.7-5.6-12.1-6.6-18.7c-1.6-11.1-0.9-22,1.1-33c0.3-1.4,0.5-2.8,0.9-4.3
			c3.7,4,7.5,7.8,11.4,11.5c4.7,4.5,9.7,8.8,14.8,12.8c6.5,5.1,13.8,8.7,21.6,11.4c10.3,3.6,20.7,6.5,31.3,8.9
			C332.4,345.1,332.7,345.2,333,345.3z"/>
		<path class="st0" d="M319.2,295.4c4.2-1.4,8.3-2.4,12.5-2.8c3-0.3,5.9-0.3,8.9,0.3c4.7,0.9,8.2,3.6,11,7.4
			c3.5,4.7,5.5,10.1,7.2,15.7c0.7,2.4,1.3,4.7,1.8,7.1c0.1,0.3,0.2,0.7-0.1,0.9c-0.3,0.2-0.6-0.1-0.8-0.2c-7-3.5-13.8-7.4-20.1-12
			c-4.6-3.4-8.8-7.1-13.2-10.7C323.9,299.3,321.6,297.4,319.2,295.4z"/>
		<path class="st0" d="M256.8,265.8c7.4-2.7,14.6-4.7,22.4-4.7c2.9,0,5.8,0.3,8.5,1.4c3.5,1.3,6,4,8,7c3.5,5.2,5.6,11,7.2,17.2
			C286.9,280.8,271.4,274.7,256.8,265.8z"/>
	</g>
</g>
</svg>
