<?xml version="1.0" encoding="utf-8"?>
<!-- Generator: Adobe Illustrator 21.1.0, SVG Export Plug-In . SVG Version: 6.00 Build 0)  -->
<svg version="1.1" id="Ebene_1" xmlns="http://www.w3.org/2000/svg" xmlns:xlink="http://www.w3.org/1999/xlink" x="0px" y="0px"
	 viewBox="0 0 512 512" style="enable-background:new 0 0 512 512;" xml:space="preserve">
<style type="text/css">
	.st0{fill:#343434;}
	.st1{fill:#BA9878;}
</style>
<circle class="st0" cx="256.2" cy="256.9" r="244.9"/>
<g id="ylGwmF.tif">
	<g>
		<path class="st1" d="M312.5,110.2c-10.2,34.5-3.3,69.8-5.3,104.7c-0.5,8.6,3,12.4,11.8,12c10-0.4,11.6-1.4,11.6-11.9
			c0.2-27.8-0.3-55.5,0.3-83.3c0.2-8.7-6.3-14-7.7-21.5"/>
		<path class="st1" d="M323.2,110.2c8.2,4.4,11.2,11.1,11,20.6c-0.5,29.9-0.5,59.7,0,89.6c0.1,7.7-2.3,9.4-9.6,9.2
			c-20.4-0.3-20.4,0-20.4-20.7c0-24.5,0.4-49.1-0.2-73.6c-0.2-9.7,1.6-18.1,8.4-25.1C316.1,110.2,319.6,110.2,323.2,110.2z"/>
		<path class="st1" d="M161.4,239.8c0-29.1,0-49.4,0-69.7c0-2.8-0.1-5.7,0.2-8.5c1.1-10.2,6.9-15.9,15.6-15.2
			c9.6,0.8,13.6,7,13.7,15.9c0.2,24.9,0.1,49.9,0.2,74.8c0,4.2,0.2,8.6,1.1,12.7c3.7,18.5,19.1,29.5,37.5,26.4
			c3.9-0.6,6.4-1.3,8.7,2.9c4.6,8.2,12.3,12.6,21.3,14.7c3,0.7,5.6,0.7,3.9,5.1c-9.4,24.3-6.7,49.8-6.6,75c0,8.3-2,10.8-10.4,10.4
			c-15.3-0.7-30.6-0.2-46-0.2c-14.7-0.1-19.3-4-23.3-18C164.5,321.9,157.9,277.1,161.4,239.8z"/>
		<path class="st1" d="M297.6,276.9c-10.8,0-20.1,0.3-29.4-0.1c-10.9-0.4-17.5-6.4-17.3-15c0.2-8.7,6.9-14.6,17.6-14.7
			c18.2-0.2,36.4-0.4,54.5,0.1c20.7,0.5,33.1,16.1,27.6,36.1c-8.1,29.1-17.4,57.8-26.3,86.7c-2.8,9.2-9.3,14.2-19.1,14
			c-9.9-0.2-22.5,4.1-28.9-1.7c-6-5.4-1.6-18.2-1.8-27.7c-0.5-21.4-0.2-42.8,12-61.8C289.7,287.8,293.3,283.1,297.6,276.9z"/>
		<path class="st1" d="M238.8,223.6c0,7.1,0.6,14.2-0.1,21.2c-0.9,8.9-6.3,14.3-15.7,13.7c-8.7-0.6-13.4-6.1-13.5-14.8
			c-0.2-13.5-0.2-26.9-0.1-40.4c0.1-9.3,5.3-15.1,14.2-15.5c9.1-0.4,14.4,5.5,15.2,14.5c0.6,7,0.1,14.2,0.1,21.3
			C238.9,223.6,238.8,223.6,238.8,223.6z"/>
		<path class="st1" d="M257,213.1c0-3.9-0.4-7.9,0.1-11.7c0.9-8.2,6.1-13.1,14-13.5c8-0.4,13.9,4.3,14.9,12.4
			c1,8.1,0.5,16.3,0.7,24.5c0.1,3-0.9,4.7-4.2,4.7c-7.5,0.1-14.9,0.3-22.4,0.6c-3.1,0.1-3.3-1.9-3.3-4.1c0-4.3,0-8.5,0-12.8
			C256.9,213.1,256.9,213.1,257,213.1z"/>
	</g>
</g>
</svg>
