<?xml version="1.0" encoding="utf-8"?>
<!-- Generator: Adobe Illustrator 21.1.0, SVG Export Plug-In . SVG Version: 6.00 Build 0)  -->
<svg version="1.1" id="Ebene_1" xmlns="http://www.w3.org/2000/svg" xmlns:xlink="http://www.w3.org/1999/xlink" x="0px" y="0px"
	 viewBox="0 0 141.7 141.7" style="enable-background:new 0 0 141.7 141.7;" xml:space="preserve">
<style type="text/css">
	.st0{fill:#EEEEEE;}
	.st1{fill:#FFFFFF;}
	.st2{fill:#BA9878;}
</style>
<circle class="st0" cx="70.9" cy="70.9" r="42.5"/>
<circle class="st1" cx="70.9" cy="70.9" r="35.4"/>
<path class="st2" d="M70.9,35.5l-0.1-7.2c13.6,0.2,24.8,5.7,33.6,16.5l-5.6,4.3C90.6,40.8,81.5,35.7,70.9,35.5"/>
<g id="D90RtG.tif">
	<g>
		<path class="st2" d="M70,48.8c0.6,0,1.2,0,1.8,0c3.6,0.2,7,1.1,10.1,2.7c0.7,0.4,0.9,0.6,0.5,1.4c-2.1,3.7-4.1,7.5-6.1,11.2
			c-0.3,0.6-0.6,0.7-1.2,0.4c-2.7-1.4-5.4-1.4-8.2-0.1c-0.7,0.4-1,0.3-1.4-0.4c-2-3.7-4-7.4-6.1-11.1c-0.5-0.9-0.2-1.1,0.5-1.5
			C63.1,49.9,66.5,49.1,70,48.8z"/>
		<path class="st2" d="M47.2,74.3c0-0.5,0.1-1,0.1-1.4c4.4,0,8.8,0,13.3,0c0.9,0,1.3,0.1,1.4,1.1c0.3,2.5,1.6,4.5,3.7,5.9
			c0.6,0.4,0.6,0.7,0.3,1.3c-2.2,3.7-4.4,7.3-6.5,11c-0.5,0.9-1,0.6-1.6,0.2C51.5,88,48,82,47.2,74.3z"/>
		<path class="st2" d="M87.3,73c2,0,4.1,0,6.1,0c0.9,0,1.2,0.1,1.1,1.1c-0.7,8-4.4,14.2-11.1,18.6c-0.6,0.4-0.9,0.2-1.2-0.3
			c-2.2-3.7-4.3-7.4-6.5-11c-0.4-0.6-0.4-1,0.3-1.4c2.1-1.4,3.4-3.5,3.8-6c0.1-0.8,0.4-1,1.1-0.9C83,73.1,85.2,73,87.3,73
			C87.3,73,87.3,73,87.3,73z"/>
		<path class="st2" d="M75.5,72.6c0,2.6-2.2,4.7-4.7,4.6c-2.5-0.1-4.5-2.1-4.5-4.6c0-2.6,2-4.6,4.7-4.6C73.5,68,75.6,70.1,75.5,72.6
			z"/>
	</g>
</g>
</svg>
