<?xml version="1.0" encoding="utf-8"?>
<!-- Generator: Adobe Illustrator 21.1.0, SVG Export Plug-In . SVG Version: 6.00 Build 0)  -->
<svg version="1.1" id="Ebene_1" xmlns="http://www.w3.org/2000/svg" xmlns:xlink="http://www.w3.org/1999/xlink" x="0px" y="0px"
	 viewBox="0 0 141.7 141.7" style="enable-background:new 0 0 141.7 141.7;" xml:space="preserve">
<style type="text/css">
	.st0{fill:#EEEEEE;}
	.st1{fill:#BA9878;}
	.st2{fill:#FFFFFF;}
</style>
<circle class="st0" cx="70.9" cy="70.9" r="42.5"/>
<path class="st1" d="M113.4,70.9c0,23.5-19,42.5-42.5,42.5s-42.5-19-42.5-42.5h42.5V28.3C94.3,28.3,113.4,47.4,113.4,70.9z"/>
<circle class="st2" cx="70.9" cy="70.9" r="35.4"/>
<g id="_x33_Jkeb7.tif">
	<g>
		<path class="st1" d="M63.3,77c0.5,2.9,0.9,5.7,1.3,8.5c0.2,1.7-0.7,2.9-2.4,3.2c-1.4,0.2-2.7-0.9-3-2.4c-0.6-3.9-1.2-7.8-1.9-11.7
			c-0.3-1.8,1-3.3,2.8-3.2c1.1,0,2.2,0.2,3.4,0.3c0.4,0,0.5-0.1,0.5-0.4c0.1-2.5,0.2-5,0.4-7.6c-1.2,0.4-2.3,0.8-3.4,1.1
			c-2.8,0.6-4.6-0.2-6-2.6c-0.4-0.7-0.7-1.4-1.1-2.2c-0.2,0.7-0.1,1.3,0,1.9c0.1,0.3,0,0.6-0.2,0.9c-1.1,1.7-2.2,3.5-3.2,5.2
			c-0.4,0.6-0.8,0.7-1.4,0.4c-0.7-0.4-1.4-0.8-2-1.3c-0.6-0.4-0.7-0.8-0.3-1.3c1.1-1.8,2.2-3.6,3.3-5.4c0.2-0.3,0.5-0.4,0.8-0.5
			c0.8-0.3,1.6-0.6,2.1-1.4c0.1-0.2,0.2-0.4,0.1-0.7c-0.4-1.2,0.3-2.4,1.6-2.6c0.3-0.1,0.5-0.2,0.6-0.4c0.2-0.4,0.5-0.4,0.8-0.2
			c0.3,0.2,0.7,0.4,0.5,0.9c-0.1,0.1-0.2,0.2-0.1,0.4c0.7,1.1,1.1,2.4,1.7,3.6c0.1,0.1,0.1,0.3,0.2,0.4c0.6,1.1,0.7,1.2,2,0.9
			c2-0.5,3.9-1.4,5.6-2.5c0.7-0.5,1.5-0.7,2.4-0.6c1.6,0.1,3.3,0.2,4.9,0.2c1.1,0,2,0.5,3,0.8c1.7,0.4,3.3,0.7,5.1,0.7
			c0.6,0,0.8-0.3,1.1-0.7c0.5-0.9,0.6-1.9,0.7-2.9c0.2-1.7,0.1-3.4,0-5.1c0-0.5,0.1-0.9-0.4-1.2c-0.3-0.2,0-0.6,0.2-0.8
			c0.2-0.3,0.5-0.5,0.8-0.3c0.3,0.3,0.7,0.2,1,0.1c1.1-0.3,2.2,0.4,2.4,1.5c0.1,0.6,0.5,0.8,1,1c0.6,0.2,1.3,0.2,1.9,0
			c0.4-0.1,0.7,0,1.1,0.2c1.7,1.1,3.4,2.1,5.1,3.2c0.7,0.4,0.8,0.8,0.4,1.5c-0.4,0.6-0.8,1.3-1.2,1.9c-0.4,0.6-0.8,0.7-1.4,0.4
			c-1.8-1.1-3.6-2.2-5.3-3.3c-0.3-0.2-0.4-0.4-0.5-0.7c-0.2-0.5-0.3-1.1-0.8-1.6c0,0.7,0,1.2,0,1.8c0,1.9-0.2,3.7-0.9,5.4
			c-0.8,2.1-2.1,3.5-4.4,3.7c-1.1,0.1-2.2,0-3.3-0.1c-0.5-0.1-1-0.1-1.5-0.2c0,0.5-0.1,1-0.1,1.5c-0.1,3-0.4,5.9-0.4,8.9
			c0,1.9,0.2,3.9,0.4,5.8c0.2,2.5,0.4,4.9,0.6,7.4c0.1,0.9-0.2,1.6-0.7,2.3c-2.1,2.7-4.3,5.5-6.4,8.2c-1,1.3-2.7,1.6-3.9,0.6
			c-1.2-1-1.4-2.6-0.4-3.9c1.9-2.4,3.8-4.9,5.7-7.3c0.2-0.2,0.3-0.4,0.3-0.8c-0.2-2.6-0.4-5.2-0.6-7.9c0-0.6-0.2-0.7-0.8-0.7
			c-0.8,0-1.5-0.1-2.3,0.2c-0.4,0.2-0.8,0-1.2,0C65.9,77.2,64.6,77.1,63.3,77z"/>
		<path class="st1" d="M76.6,51.9c0,2.9-2.4,5.3-5.3,5.3c-2.9,0-5.3-2.4-5.3-5.3c0-3,2.5-5.4,5.3-5.4C74.2,46.6,76.6,48.9,76.6,51.9
			z"/>
	</g>
</g>
</svg>
